<svg xmlns="http://www.w3.org/2000/svg" xmlns:xlink="http://www.w3.org/1999/xlink" viewBox="0 0 311.48 77.25"><defs><style>.cls-1{fill:#30364d;}.cls-2{fill:url(#linear-gradient);}</style><linearGradient id="linear-gradient" x1="231.58" y1="38.67" x2="311.48" y2="38.67" gradientUnits="userSpaceOnUse"><stop offset="1" stop-color="#30364d"/><stop offset="1" stop-color="#393a4e"/><stop offset="1" stop-color="#504551"/><stop offset="1" stop-color="#775655"/><stop offset="1" stop-color="#ac6e5b"/><stop offset="1" stop-color="#ef8d63"/><stop offset="1" stop-color="#f69064"/></linearGradient></defs><g id="Layer_2" data-name="Layer 2"><g id="Layer_1-2" data-name="Layer 1"><path class="cls-1" d="M51.75,7.91V9.34L14.69,66.86H55.16l-6.73,10.3H10.3C4.61,77.16,0,73,0,67.82H0L37.35,10.29H5.54L12.28,0H43C47.84,0,51.75,3.54,51.75,7.91Z"/><path class="cls-1" d="M55,37.42a32.51,32.51,0,0,1,3.89-16.18,27,27,0,0,1,11-10.74A34.23,34.23,0,0,1,86.38,6.68H110.5A34.26,34.26,0,0,1,127,10.5a27,27,0,0,1,11,10.74,32.41,32.41,0,0,1,3.9,16.18A32.42,32.42,0,0,1,138,53.61a27.08,27.08,0,0,1-11,10.74,34.26,34.26,0,0,1-16.51,3.82H86.38a34.23,34.23,0,0,1-16.51-3.82,27.16,27.16,0,0,1-11-10.74A32.52,32.52,0,0,1,55,37.42Zm10.61,0c0,5.5,1.76,11.06,5.27,14.37s9.31,5,15.09,5h24.94c5.77,0,11.57-1.66,15.08-5s5.27-8.87,5.27-14.37-1.75-11-5.27-14.36-9.31-5-15.08-5H86c-5.78,0-11.57,1.65-15.09,5S65.61,31.93,65.61,37.42Z"/><path class="cls-1" d="M248.66,0h-2.18L227.07,34.81,207.66,0H192.9L173.49,34.81,154.09,0c-6.33,0-10.42,5.82-7.53,10.72L167.27,45.8,148.82,77.16h12.45L179.72,45.8,200.28,11,220.85,45.8,202.4,77.16h12.45L233.3,45.8,255,9C257.44,4.9,254,0,248.66,0Z"/><path class="cls-2" d="M285.28,4.43A7.29,7.29,0,0,0,278.43.1c-3.06,0-4.92,1-6.86,4.33l-40,72.82h63.17a16.7,16.7,0,0,0,14.93-24.19ZM251,66.81l24.82-46.53c1.34-3,4.14-2.75,5.19-.28l18,36.41c2.91,5.58,0,10.45-8.33,10.38Z"/><path class="cls-1" d="M80.56,35.4a3.46,3.46,0,0,0,3.64.53A8.49,8.49,0,0,1,88,35.14a10.06,10.06,0,0,1,2.91.47,3.2,3.2,0,0,0,3.68-1.09,1.74,1.74,0,0,1,.11-.18,3.21,3.21,0,0,0-2-4.7c-.33-.11-.67-.21-1-.3a15.57,15.57,0,0,0-8.3,0,14.31,14.31,0,0,0-2.58,1,2.94,2.94,0,0,0-.28,4.95Z"/><path class="cls-1" d="M113.55,26.22a4,4,0,0,0-2.82,1,4.4,4.4,0,0,0-1,2.93L109.66,35a4.42,4.42,0,0,0,.93,3,4.32,4.32,0,0,0,5.6.08,4.44,4.44,0,0,0,1-2.93l.06-4.86a4.39,4.39,0,0,0-.93-2.95A3.87,3.87,0,0,0,113.55,26.22Z"/></g></g></svg>